<svg width="22" height="22" viewBox="0 0 22 22" fill="none" xmlns="http://www.w3.org/2000/svg">
<path d="M20.54 14H16C15.4696 14 14.9609 14.2107 14.5858 14.5858C14.2107 14.9609 14 15.4696 14 16V20.54M6 2.34V4C6 4.79565 6.31607 5.55871 6.87868 6.12132C7.44129 6.68393 8.20435 7 9 7C9.53043 7 10.0391 7.21071 10.4142 7.58579C10.7893 7.96086 11 8.46957 11 9C11 10.1 11.9 11 13 11C13.5304 11 14.0391 10.7893 14.4142 10.4142C14.7893 10.0391 15 9.53043 15 9C15 7.9 15.9 7 17 7H20.17M10 20.95V17C10 16.4696 9.78929 15.9609 9.41421 15.5858C9.03914 15.2107 8.53043 15 8 15C7.46957 15 6.96086 14.7893 6.58579 14.4142C6.21071 14.0391 6 13.5304 6 13V12C6 11.4696 5.78929 10.9609 5.41421 10.5858C5.03914 10.2107 4.53043 10 4 10H1.05M21 11C21 16.5228 16.5228 21 11 21C5.47715 21 1 16.5228 1 11C1 5.47715 5.47715 1 11 1C16.5228 1 21 5.47715 21 11Z" stroke="#6729FF" stroke-width="2" stroke-linecap="round" stroke-linejoin="round"/>
</svg>
